<?xml version="1.0" encoding="UTF-8" standalone="no"?><svg xmlns="http://www.w3.org/2000/svg" xmlns:xlink="http://www.w3.org/1999/xlink" contentScriptType="application/ecmascript" contentStyleType="text/css" height="877px" preserveAspectRatio="none" style="width:808px;height:877px;background:#FFFFFF;" version="1.1" viewBox="0 0 808 877" width="808px" zoomAndPan="magnify"><defs/><g><!--MD5=[8aa441cdd93a4e2944eff58bc06cd78a]
class DatabaseConnection--><rect codeLine="3" fill="#FEFECE" height="75.6719" id="DatabaseConnection" rx="3.5" ry="3.5" style="stroke:#A80036;stroke-width:1.5;" width="149" x="325" y="523"/><ellipse cx="340" cy="539" fill="#B4A7E5" rx="11" ry="11" style="stroke:#A80036;stroke-width:1.0;"/><path d="M340.9531,535.6406 L340.9531,542.2969 L342.6719,542.2969 Q343.2813,542.2969 343.5469,542.5313 Q343.8125,542.7656 343.8125,543.1563 Q343.8125,543.5313 343.5469,543.7656 Q343.2813,544 342.6719,544 L337.5313,544 Q336.9219,544 336.6563,543.7656 Q336.3906,543.5313 336.3906,543.1406 Q336.3906,542.7656 336.6563,542.5313 Q336.9219,542.2969 337.5313,542.2969 L339.25,542.2969 L339.25,535.6406 L337.5313,535.6406 Q336.9219,535.6406 336.6563,535.4063 Q336.3906,535.1719 336.3906,534.7813 Q336.3906,534.4063 336.6563,534.1719 Q336.9219,533.9375 337.5313,533.9375 L342.6719,533.9375 Q343.2813,533.9375 343.5469,534.1719 Q343.8125,534.4063 343.8125,534.7813 Q343.8125,535.1719 343.5469,535.4063 Q343.2813,535.6406 342.6719,535.6406 L340.9531,535.6406 Z " fill="#000000"/><text fill="#000000" font-family="sans-serif" font-size="12" font-style="italic" lengthAdjust="spacing" textLength="117" x="354" y="543.9102">DatabaseConnection</text><line style="stroke:#A80036;stroke-width:1.5;" x1="326" x2="473" y1="555" y2="555"/><line style="stroke:#A80036;stroke-width:1.5;" x1="326" x2="473" y1="563" y2="563"/><ellipse cx="336" cy="574" fill="#84BE84" rx="3" ry="3" style="stroke:#038048;stroke-width:1.0;"/><text fill="#000000" font-family="sans-serif" font-size="11" lengthAdjust="spacing" textLength="70" x="345" y="578.4189">get_instance()</text><ellipse cx="336" cy="587.8359" fill="#84BE84" rx="3" ry="3" style="stroke:#038048;stroke-width:1.0;"/><text fill="#000000" font-family="sans-serif" font-size="11" lengthAdjust="spacing" textLength="95" x="345" y="592.2549">execute_query(sql)</text><path d="M509,551.5 L509,557 L474.12,561 L509,565 L509,570.8516 A3.5,3.5 0 0 0 512.5,574.3516 L670.5,574.3516 A3.5,3.5 0 0 0 674,570.8516 L674,558 L664,548 L512.5,548 A3.5,3.5 0 0 0 509,551.5 " fill="#7FFFD4" style="stroke:#454645;stroke-width:1.5;"/><path d="M664,548 L664,556.25 A1.75,1.75 0 0 0 665.75,558 L674,558 L664,548 " fill="#7FFFD4" style="stroke:#454645;stroke-width:1.5;"/><text fill="#454645" font-family="sans-serif" font-size="13" lengthAdjust="spacing" textLength="144" x="515" y="566.4951">Singleton Design Pattern</text><!--MD5=[faa368968ce5588102a27370e7dba2c1]
class DatabaseConnectionAdapter--><rect codeLine="9" fill="#FEFECE" height="103.3438" id="DatabaseConnectionAdapter" rx="3.5" ry="3.5" style="stroke:#A80036;stroke-width:1.5;" width="191" x="301" y="659"/><ellipse cx="316" cy="675" fill="#ADD1B2" rx="11" ry="11" style="stroke:#A80036;stroke-width:1.0;"/><path d="M318.7656,670.875 Q318.9219,670.6563 319.1094,670.5469 Q319.2969,670.4375 319.5156,670.4375 Q319.8906,670.4375 320.125,670.7031 Q320.3594,670.9531 320.3594,671.5625 L320.3594,673.0156 Q320.3594,673.625 320.125,673.8906 Q319.8906,674.1563 319.5156,674.1563 Q319.1719,674.1563 318.9688,673.9531 Q318.7656,673.7656 318.6563,673.25 Q318.6094,672.8906 318.4219,672.7031 Q318.0938,672.3281 317.4844,672.1094 Q316.875,671.8906 316.25,671.8906 Q315.4844,671.8906 314.8438,672.2188 Q314.2188,672.5469 313.7188,673.2969 Q313.2344,674.0469 313.2344,675.0781 L313.2344,676.1719 Q313.2344,677.4063 314.125,678.2344 Q315.0156,679.0469 316.6094,679.0469 Q317.5469,679.0469 318.2031,678.7969 Q318.5938,678.6406 319.0156,678.2031 Q319.2813,677.9375 319.4219,677.8594 Q319.5781,677.7813 319.7813,677.7813 Q320.1094,677.7813 320.3594,678.0469 Q320.625,678.2969 320.625,678.6406 Q320.625,678.9844 320.2813,679.3906 Q319.7813,679.9688 318.9844,680.2969 Q317.9063,680.75 316.6094,680.75 Q315.0938,680.75 313.8906,680.125 Q312.9063,679.625 312.2188,678.5625 Q311.5313,677.4844 311.5313,676.2031 L311.5313,675.0469 Q311.5313,673.7188 312.1406,672.5781 Q312.7656,671.4219 313.8594,670.8125 Q314.9531,670.1875 316.1875,670.1875 Q316.9219,670.1875 317.5625,670.3594 Q318.2188,670.5156 318.7656,670.875 Z " fill="#000000"/><text fill="#000000" font-family="sans-serif" font-size="12" lengthAdjust="spacing" textLength="159" x="330" y="679.9102">DatabaseConnectionAdapter</text><line style="stroke:#A80036;stroke-width:1.5;" x1="302" x2="491" y1="691" y2="691"/><rect fill="none" height="6" style="stroke:#C82930;stroke-width:1.0;" width="6" x="309" y="699"/><text fill="#000000" font-family="sans-serif" font-size="11" lengthAdjust="spacing" textLength="118" x="321" y="706.4189">db_pool: ConnectionPool</text><rect fill="none" height="6" style="stroke:#C82930;stroke-width:1.0;" width="6" x="309" y="712.8359"/><text fill="#000000" font-family="sans-serif" font-size="11" lengthAdjust="spacing" textLength="147" x="321" y="720.2549">instance: DatabaseConnection</text><line style="stroke:#A80036;stroke-width:1.5;" x1="302" x2="491" y1="726.6719" y2="726.6719"/><ellipse cx="312" cy="737.6719" fill="#84BE84" rx="3" ry="3" style="stroke:#038048;stroke-width:1.0;"/><text fill="#000000" font-family="sans-serif" font-size="11" lengthAdjust="spacing" textLength="70" x="321" y="742.0908">get_instance()</text><ellipse cx="312" cy="751.5078" fill="#84BE84" rx="3" ry="3" style="stroke:#038048;stroke-width:1.0;"/><text fill="#000000" font-family="sans-serif" font-size="11" lengthAdjust="spacing" textLength="95" x="321" y="755.9268">execute_query(sql)</text><path d="M527.5,701 L527.5,706.5 L492.02,710.5 L527.5,714.5 L527.5,720.3516 A3.5,3.5 0 0 0 531,723.8516 L680,723.8516 A3.5,3.5 0 0 0 683.5,720.3516 L683.5,707.5 L673.5,697.5 L531,697.5 A3.5,3.5 0 0 0 527.5,701 " fill="#7FFFD4" style="stroke:#454645;stroke-width:1.5;"/><path d="M673.5,697.5 L673.5,705.75 A1.75,1.75 0 0 0 675.25,707.5 L683.5,707.5 L673.5,697.5 " fill="#7FFFD4" style="stroke:#454645;stroke-width:1.5;"/><text fill="#454645" font-family="sans-serif" font-size="13" lengthAdjust="spacing" textLength="135" x="533.5" y="715.9951">Adapter Design Pattern</text><!--MD5=[0f7bc2b2700b8f1b8b0a0321832dd523]
class BaseModel--><rect codeLine="18" fill="#FEFECE" height="48" id="BaseModel" rx="3.5" ry="3.5" style="stroke:#A80036;stroke-width:1.5;" width="93" x="652" y="21"/><ellipse cx="667" cy="37" fill="#B4A7E5" rx="11" ry="11" style="stroke:#A80036;stroke-width:1.0;"/><path d="M667.9531,33.6406 L667.9531,40.2969 L669.6719,40.2969 Q670.2813,40.2969 670.5469,40.5313 Q670.8125,40.7656 670.8125,41.1563 Q670.8125,41.5313 670.5469,41.7656 Q670.2813,42 669.6719,42 L664.5313,42 Q663.9219,42 663.6563,41.7656 Q663.3906,41.5313 663.3906,41.1406 Q663.3906,40.7656 663.6563,40.5313 Q663.9219,40.2969 664.5313,40.2969 L666.25,40.2969 L666.25,33.6406 L664.5313,33.6406 Q663.9219,33.6406 663.6563,33.4063 Q663.3906,33.1719 663.3906,32.7813 Q663.3906,32.4063 663.6563,32.1719 Q663.9219,31.9375 664.5313,31.9375 L669.6719,31.9375 Q670.2813,31.9375 670.5469,32.1719 Q670.8125,32.4063 670.8125,32.7813 Q670.8125,33.1719 670.5469,33.4063 Q670.2813,33.6406 669.6719,33.6406 L667.9531,33.6406 Z " fill="#000000"/><text fill="#000000" font-family="sans-serif" font-size="12" font-style="italic" lengthAdjust="spacing" textLength="61" x="681" y="41.9102">BaseModel</text><line style="stroke:#A80036;stroke-width:1.5;" x1="653" x2="744" y1="53" y2="53"/><line style="stroke:#A80036;stroke-width:1.5;" x1="653" x2="744" y1="61" y2="61"/><!--MD5=[755527ae18af5b80546074de0fe82b4c]
class CreateTempAndHumidRequest--><rect codeLine="20" fill="#FEFECE" height="75.6719" id="CreateTempAndHumidRequest" rx="3.5" ry="3.5" style="stroke:#A80036;stroke-width:1.5;" width="206" x="595.5" y="143"/><ellipse cx="610.5" cy="159" fill="#ADD1B2" rx="11" ry="11" style="stroke:#A80036;stroke-width:1.0;"/><path d="M613.2656,154.875 Q613.4219,154.6563 613.6094,154.5469 Q613.7969,154.4375 614.0156,154.4375 Q614.3906,154.4375 614.625,154.7031 Q614.8594,154.9531 614.8594,155.5625 L614.8594,157.0156 Q614.8594,157.625 614.625,157.8906 Q614.3906,158.1563 614.0156,158.1563 Q613.6719,158.1563 613.4688,157.9531 Q613.2656,157.7656 613.1563,157.25 Q613.1094,156.8906 612.9219,156.7031 Q612.5938,156.3281 611.9844,156.1094 Q611.375,155.8906 610.75,155.8906 Q609.9844,155.8906 609.3438,156.2188 Q608.7188,156.5469 608.2188,157.2969 Q607.7344,158.0469 607.7344,159.0781 L607.7344,160.1719 Q607.7344,161.4063 608.625,162.2344 Q609.5156,163.0469 611.1094,163.0469 Q612.0469,163.0469 612.7031,162.7969 Q613.0938,162.6406 613.5156,162.2031 Q613.7813,161.9375 613.9219,161.8594 Q614.0781,161.7813 614.2813,161.7813 Q614.6094,161.7813 614.8594,162.0469 Q615.125,162.2969 615.125,162.6406 Q615.125,162.9844 614.7813,163.3906 Q614.2813,163.9688 613.4844,164.2969 Q612.4063,164.75 611.1094,164.75 Q609.5938,164.75 608.3906,164.125 Q607.4063,163.625 606.7188,162.5625 Q606.0313,161.4844 606.0313,160.2031 L606.0313,159.0469 Q606.0313,157.7188 606.6406,156.5781 Q607.2656,155.4219 608.3594,154.8125 Q609.4531,154.1875 610.6875,154.1875 Q611.4219,154.1875 612.0625,154.3594 Q612.7188,154.5156 613.2656,154.875 Z " fill="#000000"/><text fill="#000000" font-family="sans-serif" font-size="12" lengthAdjust="spacing" textLength="174" x="624.5" y="163.9102">CreateTempAndHumidRequest</text><line style="stroke:#A80036;stroke-width:1.5;" x1="596.5" x2="800.5" y1="175" y2="175"/><ellipse cx="606.5" cy="186" rx="3" ry="3" style="stroke:#038048;stroke-width:1.0;fill:none;"/><text fill="#000000" font-family="sans-serif" font-size="11" lengthAdjust="spacing" textLength="40" x="615.5" y="190.4189">temp: int</text><ellipse cx="606.5" cy="199.8359" rx="3" ry="3" style="stroke:#038048;stroke-width:1.0;fill:none;"/><text fill="#000000" font-family="sans-serif" font-size="11" lengthAdjust="spacing" textLength="45" x="615.5" y="204.2549">humid: int</text><line style="stroke:#A80036;stroke-width:1.5;" x1="596.5" x2="800.5" y1="210.6719" y2="210.6719"/><!--MD5=[0278646e5a3f51edb25d463fe8c5bfab]
class MainController--><rect codeLine="26" fill="#FEFECE" height="75.6719" id="MainController" rx="3.5" ry="3.5" style="stroke:#A80036;stroke-width:1.5;" width="152" x="436.5" y="7"/><ellipse cx="469.5" cy="23" fill="#ADD1B2" rx="11" ry="11" style="stroke:#A80036;stroke-width:1.0;"/><path d="M472.2656,18.875 Q472.4219,18.6563 472.6094,18.5469 Q472.7969,18.4375 473.0156,18.4375 Q473.3906,18.4375 473.625,18.7031 Q473.8594,18.9531 473.8594,19.5625 L473.8594,21.0156 Q473.8594,21.625 473.625,21.8906 Q473.3906,22.1563 473.0156,22.1563 Q472.6719,22.1563 472.4688,21.9531 Q472.2656,21.7656 472.1563,21.25 Q472.1094,20.8906 471.9219,20.7031 Q471.5938,20.3281 470.9844,20.1094 Q470.375,19.8906 469.75,19.8906 Q468.9844,19.8906 468.3438,20.2188 Q467.7188,20.5469 467.2188,21.2969 Q466.7344,22.0469 466.7344,23.0781 L466.7344,24.1719 Q466.7344,25.4063 467.625,26.2344 Q468.5156,27.0469 470.1094,27.0469 Q471.0469,27.0469 471.7031,26.7969 Q472.0938,26.6406 472.5156,26.2031 Q472.7813,25.9375 472.9219,25.8594 Q473.0781,25.7813 473.2813,25.7813 Q473.6094,25.7813 473.8594,26.0469 Q474.125,26.2969 474.125,26.6406 Q474.125,26.9844 473.7813,27.3906 Q473.2813,27.9688 472.4844,28.2969 Q471.4063,28.75 470.1094,28.75 Q468.5938,28.75 467.3906,28.125 Q466.4063,27.625 465.7188,26.5625 Q465.0313,25.4844 465.0313,24.2031 L465.0313,23.0469 Q465.0313,21.7188 465.6406,20.5781 Q466.2656,19.4219 467.3594,18.8125 Q468.4531,18.1875 469.6875,18.1875 Q470.4219,18.1875 471.0625,18.3594 Q471.7188,18.5156 472.2656,18.875 Z " fill="#000000"/><text fill="#000000" font-family="sans-serif" font-size="12" lengthAdjust="spacing" textLength="80" x="487.5" y="27.9102">MainController</text><line style="stroke:#A80036;stroke-width:1.5;" x1="437.5" x2="587.5" y1="39" y2="39"/><line style="stroke:#A80036;stroke-width:1.5;" x1="437.5" x2="587.5" y1="47" y2="47"/><ellipse cx="447.5" cy="58" fill="#84BE84" rx="3" ry="3" style="stroke:#038048;stroke-width:1.0;"/><text fill="#000000" font-family="sans-serif" font-size="11" lengthAdjust="spacing" textLength="126" x="456.5" y="62.4189">create_temp_and_humid()</text><ellipse cx="447.5" cy="71.8359" fill="#84BE84" rx="3" ry="3" style="stroke:#038048;stroke-width:1.0;"/><text fill="#000000" font-family="sans-serif" font-size="11" lengthAdjust="spacing" textLength="110" x="456.5" y="76.2549">get_humid_and_temp()</text><!--MD5=[982b7704c37f834310f46f819c83e8df]
class MainService--><rect codeLine="33" fill="#FEFECE" height="75.6719" id="MainService" rx="3.5" ry="3.5" style="stroke:#A80036;stroke-width:1.5;" width="152" x="408.5" y="143"/><ellipse cx="447.35" cy="159" fill="#A9DCDF" rx="11" ry="11" style="stroke:#A80036;stroke-width:1.0;"/><path d="M449.5375,160.7656 L445.3969,160.7656 L444.975,161.7969 L445.3969,161.7969 Q446.0063,161.7969 446.2719,162.0313 Q446.5375,162.2656 446.5375,162.6563 Q446.5375,163.0313 446.2719,163.2656 Q446.0063,163.5 445.3969,163.5 L443.1,163.5 Q442.4906,163.5 442.2406,163.2656 Q441.975,163.0313 441.975,162.6406 Q441.975,162.2656 442.2563,162.0313 Q442.5219,161.7813 443.1469,161.7969 L445.8188,155.1406 L444.7094,155.1406 Q444.1,155.1406 443.8344,154.9063 Q443.5688,154.6719 443.5688,154.2813 Q443.5688,153.9063 443.8344,153.6719 Q444.1,153.4375 444.7094,153.4375 L448.3813,153.4375 L451.7719,161.7969 Q452.3656,161.7969 452.5531,161.9375 Q452.9438,162.2031 452.9438,162.6563 Q452.9438,163.0313 452.6781,163.2656 Q452.4281,163.5 451.8188,163.5 L449.5219,163.5 Q448.9125,163.5 448.6469,163.2656 Q448.3813,163.0313 448.3813,162.6406 Q448.3813,162.2656 448.6469,162.0313 Q448.9125,161.7969 449.5219,161.7969 L449.9438,161.7969 L449.5375,160.7656 Z M448.8188,159.0625 L447.4594,155.6875 L446.0844,159.0625 L448.8188,159.0625 Z " fill="#000000"/><text fill="#000000" font-family="sans-serif" font-size="12" font-style="italic" lengthAdjust="spacing" textLength="67" x="466.65" y="163.9102">MainService</text><line style="stroke:#A80036;stroke-width:1.5;" x1="409.5" x2="559.5" y1="175" y2="175"/><line style="stroke:#A80036;stroke-width:1.5;" x1="409.5" x2="559.5" y1="183" y2="183"/><ellipse cx="419.5" cy="194" fill="#84BE84" rx="3" ry="3" style="stroke:#038048;stroke-width:1.0;"/><text fill="#000000" font-family="sans-serif" font-size="11" lengthAdjust="spacing" textLength="126" x="428.5" y="198.4189">create_temp_and_humid()</text><ellipse cx="419.5" cy="207.8359" fill="#84BE84" rx="3" ry="3" style="stroke:#038048;stroke-width:1.0;"/><text fill="#000000" font-family="sans-serif" font-size="11" lengthAdjust="spacing" textLength="110" x="428.5" y="212.2549">get_humid_and_temp()</text><!--MD5=[5b987fce0efcc0bb08d22ac1bbdf99e3]
class DatabaseFacade--><rect codeLine="38" fill="#FEFECE" height="75.6719" id="DatabaseFacade" rx="3.5" ry="3.5" style="stroke:#A80036;stroke-width:1.5;" width="152" x="323.5" y="387"/><ellipse cx="349.75" cy="403" fill="#ADD1B2" rx="11" ry="11" style="stroke:#A80036;stroke-width:1.0;"/><path d="M352.5156,398.875 Q352.6719,398.6563 352.8594,398.5469 Q353.0469,398.4375 353.2656,398.4375 Q353.6406,398.4375 353.875,398.7031 Q354.1094,398.9531 354.1094,399.5625 L354.1094,401.0156 Q354.1094,401.625 353.875,401.8906 Q353.6406,402.1563 353.2656,402.1563 Q352.9219,402.1563 352.7188,401.9531 Q352.5156,401.7656 352.4063,401.25 Q352.3594,400.8906 352.1719,400.7031 Q351.8438,400.3281 351.2344,400.1094 Q350.625,399.8906 350,399.8906 Q349.2344,399.8906 348.5938,400.2188 Q347.9688,400.5469 347.4688,401.2969 Q346.9844,402.0469 346.9844,403.0781 L346.9844,404.1719 Q346.9844,405.4063 347.875,406.2344 Q348.7656,407.0469 350.3594,407.0469 Q351.2969,407.0469 351.9531,406.7969 Q352.3438,406.6406 352.7656,406.2031 Q353.0313,405.9375 353.1719,405.8594 Q353.3281,405.7813 353.5313,405.7813 Q353.8594,405.7813 354.1094,406.0469 Q354.375,406.2969 354.375,406.6406 Q354.375,406.9844 354.0313,407.3906 Q353.5313,407.9688 352.7344,408.2969 Q351.6563,408.75 350.3594,408.75 Q348.8438,408.75 347.6406,408.125 Q346.6563,407.625 345.9688,406.5625 Q345.2813,405.4844 345.2813,404.2031 L345.2813,403.0469 Q345.2813,401.7188 345.8906,400.5781 Q346.5156,399.4219 347.6094,398.8125 Q348.7031,398.1875 349.9375,398.1875 Q350.6719,398.1875 351.3125,398.3594 Q351.9688,398.5156 352.5156,398.875 Z " fill="#000000"/><text fill="#000000" font-family="sans-serif" font-size="12" lengthAdjust="spacing" textLength="95" x="366.25" y="407.9102">DatabaseFacade</text><line style="stroke:#A80036;stroke-width:1.5;" x1="324.5" x2="474.5" y1="419" y2="419"/><line style="stroke:#A80036;stroke-width:1.5;" x1="324.5" x2="474.5" y1="427" y2="427"/><ellipse cx="334.5" cy="438" fill="#84BE84" rx="3" ry="3" style="stroke:#038048;stroke-width:1.0;"/><text fill="#000000" font-family="sans-serif" font-size="11" lengthAdjust="spacing" textLength="126" x="343.5" y="442.4189">create_temp_and_humid()</text><ellipse cx="334.5" cy="451.8359" fill="#84BE84" rx="3" ry="3" style="stroke:#038048;stroke-width:1.0;"/><text fill="#000000" font-family="sans-serif" font-size="11" lengthAdjust="spacing" textLength="110" x="343.5" y="456.2549">get_humid_and_temp()</text><path d="M510.5,415.5 L510.5,421 L475.51,425 L510.5,429 L510.5,434.8516 A3.5,3.5 0 0 0 514,438.3516 L661,438.3516 A3.5,3.5 0 0 0 664.5,434.8516 L664.5,422 L654.5,412 L514,412 A3.5,3.5 0 0 0 510.5,415.5 " fill="#7FFFD4" style="stroke:#454645;stroke-width:1.5;"/><path d="M654.5,412 L654.5,420.25 A1.75,1.75 0 0 0 656.25,422 L664.5,422 L654.5,412 " fill="#7FFFD4" style="stroke:#454645;stroke-width:1.5;"/><text fill="#454645" font-family="sans-serif" font-size="13" lengthAdjust="spacing" textLength="133" x="516.5" y="430.4951">Facade Design Pattern</text><!--MD5=[852daa32778dbc11cf55047c8c9d2a62]
class MainServiceImpl--><rect fill="#FEFECE" height="48" id="MainServiceImpl" rx="3.5" ry="3.5" style="stroke:#A80036;stroke-width:1.5;" width="122" x="338.5" y="279"/><ellipse cx="353.5" cy="295" fill="#ADD1B2" rx="11" ry="11" style="stroke:#A80036;stroke-width:1.0;"/><path d="M356.2656,290.875 Q356.4219,290.6563 356.6094,290.5469 Q356.7969,290.4375 357.0156,290.4375 Q357.3906,290.4375 357.625,290.7031 Q357.8594,290.9531 357.8594,291.5625 L357.8594,293.0156 Q357.8594,293.625 357.625,293.8906 Q357.3906,294.1563 357.0156,294.1563 Q356.6719,294.1563 356.4688,293.9531 Q356.2656,293.7656 356.1563,293.25 Q356.1094,292.8906 355.9219,292.7031 Q355.5938,292.3281 354.9844,292.1094 Q354.375,291.8906 353.75,291.8906 Q352.9844,291.8906 352.3438,292.2188 Q351.7188,292.5469 351.2188,293.2969 Q350.7344,294.0469 350.7344,295.0781 L350.7344,296.1719 Q350.7344,297.4063 351.625,298.2344 Q352.5156,299.0469 354.1094,299.0469 Q355.0469,299.0469 355.7031,298.7969 Q356.0938,298.6406 356.5156,298.2031 Q356.7813,297.9375 356.9219,297.8594 Q357.0781,297.7813 357.2813,297.7813 Q357.6094,297.7813 357.8594,298.0469 Q358.125,298.2969 358.125,298.6406 Q358.125,298.9844 357.7813,299.3906 Q357.2813,299.9688 356.4844,300.2969 Q355.4063,300.75 354.1094,300.75 Q352.5938,300.75 351.3906,300.125 Q350.4063,299.625 349.7188,298.5625 Q349.0313,297.4844 349.0313,296.2031 L349.0313,295.0469 Q349.0313,293.7188 349.6406,292.5781 Q350.2656,291.4219 351.3594,290.8125 Q352.4531,290.1875 353.6875,290.1875 Q354.4219,290.1875 355.0625,290.3594 Q355.7188,290.5156 356.2656,290.875 Z " fill="#000000"/><text fill="#000000" font-family="sans-serif" font-size="12" lengthAdjust="spacing" textLength="90" x="367.5" y="299.9102">MainServiceImpl</text><line style="stroke:#A80036;stroke-width:1.5;" x1="339.5" x2="459.5" y1="311" y2="311"/><line style="stroke:#A80036;stroke-width:1.5;" x1="339.5" x2="459.5" y1="319" y2="319"/><!--MD5=[79dffa5784868ff8ec40a020a70b26f2]
class FakeMainServiceImpl--><rect fill="#FEFECE" height="48" id="FakeMainServiceImpl" rx="3.5" ry="3.5" style="stroke:#A80036;stroke-width:1.5;" width="149" x="496" y="279"/><ellipse cx="511" cy="295" fill="#ADD1B2" rx="11" ry="11" style="stroke:#A80036;stroke-width:1.0;"/><path d="M513.7656,290.875 Q513.9219,290.6563 514.1094,290.5469 Q514.2969,290.4375 514.5156,290.4375 Q514.8906,290.4375 515.125,290.7031 Q515.3594,290.9531 515.3594,291.5625 L515.3594,293.0156 Q515.3594,293.625 515.125,293.8906 Q514.8906,294.1563 514.5156,294.1563 Q514.1719,294.1563 513.9688,293.9531 Q513.7656,293.7656 513.6563,293.25 Q513.6094,292.8906 513.4219,292.7031 Q513.0938,292.3281 512.4844,292.1094 Q511.875,291.8906 511.25,291.8906 Q510.4844,291.8906 509.8438,292.2188 Q509.2188,292.5469 508.7188,293.2969 Q508.2344,294.0469 508.2344,295.0781 L508.2344,296.1719 Q508.2344,297.4063 509.125,298.2344 Q510.0156,299.0469 511.6094,299.0469 Q512.5469,299.0469 513.2031,298.7969 Q513.5938,298.6406 514.0156,298.2031 Q514.2813,297.9375 514.4219,297.8594 Q514.5781,297.7813 514.7813,297.7813 Q515.1094,297.7813 515.3594,298.0469 Q515.625,298.2969 515.625,298.6406 Q515.625,298.9844 515.2813,299.3906 Q514.7813,299.9688 513.9844,300.2969 Q512.9063,300.75 511.6094,300.75 Q510.0938,300.75 508.8906,300.125 Q507.9063,299.625 507.2188,298.5625 Q506.5313,297.4844 506.5313,296.2031 L506.5313,295.0469 Q506.5313,293.7188 507.1406,292.5781 Q507.7656,291.4219 508.8594,290.8125 Q509.9531,290.1875 511.1875,290.1875 Q511.9219,290.1875 512.5625,290.3594 Q513.2188,290.5156 513.7656,290.875 Z " fill="#000000"/><text fill="#000000" font-family="sans-serif" font-size="12" lengthAdjust="spacing" textLength="117" x="525" y="299.9102">FakeMainServiceImpl</text><line style="stroke:#A80036;stroke-width:1.5;" x1="497" x2="644" y1="311" y2="311"/><line style="stroke:#A80036;stroke-width:1.5;" x1="497" x2="644" y1="319" y2="319"/><!--MD5=[3c9901a27e883e7ebae0ab9b9036b7fb]
class DbPoolFactory--><rect codeLine="49" fill="#FEFECE" height="75.6719" id="DbPoolFactory" rx="3.5" ry="3.5" style="stroke:#A80036;stroke-width:1.5;" width="140" x="123.5" y="672.5"/><ellipse cx="151.1" cy="688.5" fill="#ADD1B2" rx="11" ry="11" style="stroke:#A80036;stroke-width:1.0;"/><path d="M153.8656,684.375 Q154.0219,684.1563 154.2094,684.0469 Q154.3969,683.9375 154.6156,683.9375 Q154.9906,683.9375 155.225,684.2031 Q155.4594,684.4531 155.4594,685.0625 L155.4594,686.5156 Q155.4594,687.125 155.225,687.3906 Q154.9906,687.6563 154.6156,687.6563 Q154.2719,687.6563 154.0688,687.4531 Q153.8656,687.2656 153.7563,686.75 Q153.7094,686.3906 153.5219,686.2031 Q153.1938,685.8281 152.5844,685.6094 Q151.975,685.3906 151.35,685.3906 Q150.5844,685.3906 149.9438,685.7188 Q149.3188,686.0469 148.8188,686.7969 Q148.3344,687.5469 148.3344,688.5781 L148.3344,689.6719 Q148.3344,690.9063 149.225,691.7344 Q150.1156,692.5469 151.7094,692.5469 Q152.6469,692.5469 153.3031,692.2969 Q153.6938,692.1406 154.1156,691.7031 Q154.3813,691.4375 154.5219,691.3594 Q154.6781,691.2813 154.8813,691.2813 Q155.2094,691.2813 155.4594,691.5469 Q155.725,691.7969 155.725,692.1406 Q155.725,692.4844 155.3813,692.8906 Q154.8813,693.4688 154.0844,693.7969 Q153.0063,694.25 151.7094,694.25 Q150.1938,694.25 148.9906,693.625 Q148.0063,693.125 147.3188,692.0625 Q146.6313,690.9844 146.6313,689.7031 L146.6313,688.5469 Q146.6313,687.2188 147.2406,686.0781 Q147.8656,684.9219 148.9594,684.3125 Q150.0531,683.6875 151.2875,683.6875 Q152.0219,683.6875 152.6625,683.8594 Q153.3188,684.0156 153.8656,684.375 Z " fill="#000000"/><text fill="#000000" font-family="sans-serif" font-size="12" lengthAdjust="spacing" textLength="80" x="167.9" y="693.4102">DbPoolFactory</text><line style="stroke:#A80036;stroke-width:1.5;" x1="124.5" x2="262.5" y1="704.5" y2="704.5"/><line style="stroke:#A80036;stroke-width:1.5;" x1="124.5" x2="262.5" y1="712.5" y2="712.5"/><ellipse cx="134.5" cy="723.5" fill="#84BE84" rx="3" ry="3" style="stroke:#038048;stroke-width:1.0;"/><text fill="#000000" font-family="sans-serif" font-size="11" lengthAdjust="spacing" textLength="114" x="143.5" y="727.9189">create_threaded_pool()</text><ellipse cx="134.5" cy="737.3359" fill="#84BE84" rx="3" ry="3" style="stroke:#038048;stroke-width:1.0;"/><text fill="#000000" font-family="sans-serif" font-size="11" lengthAdjust="spacing" textLength="101" x="143.5" y="741.7549">create_simple_pool()</text><path d="M87.5,551.5 L87.5,570.8516 A3.5,3.5 0 0 0 91,574.3516 L184.91,574.3516 L192.24,672.23 L192.91,574.3516 L286,574.3516 A3.5,3.5 0 0 0 289.5,570.8516 L289.5,558 L279.5,548 L91,548 A3.5,3.5 0 0 0 87.5,551.5 " fill="#7FFFD4" style="stroke:#454645;stroke-width:1.5;"/><path d="M279.5,548 L279.5,556.25 A1.75,1.75 0 0 0 281.25,558 L289.5,558 L279.5,548 " fill="#7FFFD4" style="stroke:#454645;stroke-width:1.5;"/><text fill="#454645" font-family="sans-serif" font-size="13" lengthAdjust="spacing" textLength="181" x="93.5" y="566.4951">Factory Method Design Pattern</text><!--MD5=[19fbb5cdb69a10ced778a095e5368e39]
class ThreadedConnectionPool--><rect fill="#FEFECE" height="48" id="ThreadedConnectionPool" rx="3.5" ry="3.5" style="stroke:#A80036;stroke-width:1.5;" width="173" x="7" y="822"/><ellipse cx="22" cy="838" fill="#ADD1B2" rx="11" ry="11" style="stroke:#A80036;stroke-width:1.0;"/><path d="M24.7656,833.875 Q24.9219,833.6563 25.1094,833.5469 Q25.2969,833.4375 25.5156,833.4375 Q25.8906,833.4375 26.125,833.7031 Q26.3594,833.9531 26.3594,834.5625 L26.3594,836.0156 Q26.3594,836.625 26.125,836.8906 Q25.8906,837.1563 25.5156,837.1563 Q25.1719,837.1563 24.9688,836.9531 Q24.7656,836.7656 24.6563,836.25 Q24.6094,835.8906 24.4219,835.7031 Q24.0938,835.3281 23.4844,835.1094 Q22.875,834.8906 22.25,834.8906 Q21.4844,834.8906 20.8438,835.2188 Q20.2188,835.5469 19.7188,836.2969 Q19.2344,837.0469 19.2344,838.0781 L19.2344,839.1719 Q19.2344,840.4063 20.125,841.2344 Q21.0156,842.0469 22.6094,842.0469 Q23.5469,842.0469 24.2031,841.7969 Q24.5938,841.6406 25.0156,841.2031 Q25.2813,840.9375 25.4219,840.8594 Q25.5781,840.7813 25.7813,840.7813 Q26.1094,840.7813 26.3594,841.0469 Q26.625,841.2969 26.625,841.6406 Q26.625,841.9844 26.2813,842.3906 Q25.7813,842.9688 24.9844,843.2969 Q23.9063,843.75 22.6094,843.75 Q21.0938,843.75 19.8906,843.125 Q18.9063,842.625 18.2188,841.5625 Q17.5313,840.4844 17.5313,839.2031 L17.5313,838.0469 Q17.5313,836.7188 18.1406,835.5781 Q18.7656,834.4219 19.8594,833.8125 Q20.9531,833.1875 22.1875,833.1875 Q22.9219,833.1875 23.5625,833.3594 Q24.2188,833.5156 24.7656,833.875 Z " fill="#000000"/><text fill="#000000" font-family="sans-serif" font-size="12" lengthAdjust="spacing" textLength="141" x="36" y="842.9102">ThreadedConnectionPool</text><line style="stroke:#A80036;stroke-width:1.5;" x1="8" x2="179" y1="854" y2="854"/><line style="stroke:#A80036;stroke-width:1.5;" x1="8" x2="179" y1="862" y2="862"/><!--MD5=[38fa4f9832a0b52860eb81e535e1bd34]
class SimpleConnectionPool--><rect fill="#FEFECE" height="48" id="SimpleConnectionPool" rx="3.5" ry="3.5" style="stroke:#A80036;stroke-width:1.5;" width="159" x="215" y="822"/><ellipse cx="230" cy="838" fill="#ADD1B2" rx="11" ry="11" style="stroke:#A80036;stroke-width:1.0;"/><path d="M232.7656,833.875 Q232.9219,833.6563 233.1094,833.5469 Q233.2969,833.4375 233.5156,833.4375 Q233.8906,833.4375 234.125,833.7031 Q234.3594,833.9531 234.3594,834.5625 L234.3594,836.0156 Q234.3594,836.625 234.125,836.8906 Q233.8906,837.1563 233.5156,837.1563 Q233.1719,837.1563 232.9688,836.9531 Q232.7656,836.7656 232.6563,836.25 Q232.6094,835.8906 232.4219,835.7031 Q232.0938,835.3281 231.4844,835.1094 Q230.875,834.8906 230.25,834.8906 Q229.4844,834.8906 228.8438,835.2188 Q228.2188,835.5469 227.7188,836.2969 Q227.2344,837.0469 227.2344,838.0781 L227.2344,839.1719 Q227.2344,840.4063 228.125,841.2344 Q229.0156,842.0469 230.6094,842.0469 Q231.5469,842.0469 232.2031,841.7969 Q232.5938,841.6406 233.0156,841.2031 Q233.2813,840.9375 233.4219,840.8594 Q233.5781,840.7813 233.7813,840.7813 Q234.1094,840.7813 234.3594,841.0469 Q234.625,841.2969 234.625,841.6406 Q234.625,841.9844 234.2813,842.3906 Q233.7813,842.9688 232.9844,843.2969 Q231.9063,843.75 230.6094,843.75 Q229.0938,843.75 227.8906,843.125 Q226.9063,842.625 226.2188,841.5625 Q225.5313,840.4844 225.5313,839.2031 L225.5313,838.0469 Q225.5313,836.7188 226.1406,835.5781 Q226.7656,834.4219 227.8594,833.8125 Q228.9531,833.1875 230.1875,833.1875 Q230.9219,833.1875 231.5625,833.3594 Q232.2188,833.5156 232.7656,833.875 Z " fill="#000000"/><text fill="#000000" font-family="sans-serif" font-size="12" lengthAdjust="spacing" textLength="127" x="244" y="842.9102">SimpleConnectionPool</text><line style="stroke:#A80036;stroke-width:1.5;" x1="216" x2="373" y1="854" y2="854"/><line style="stroke:#A80036;stroke-width:1.5;" x1="216" x2="373" y1="862" y2="862"/><!--MD5=[cb741ac6c9e837faaa29c6b43ffc6228]
reverse link DatabaseConnection to DatabaseConnectionAdapter--><path codeLine="16" d="M398.33,619.48 C398.07,632.49 397.79,646.22 397.53,658.92 " fill="none" id="DatabaseConnection-backto-DatabaseConnectionAdapter" style="stroke:#454645;stroke-width:1.0;"/><polygon fill="none" points="391.34,619.07,398.74,599.22,405.33,619.36,391.34,619.07" style="stroke:#454645;stroke-width:1.0;"/><!--MD5=[30481a9014adc0b32e380605fd8301de]
reverse link BaseModel to CreateTempAndHumidRequest--><path codeLine="24" d="M698.5,89.22 C698.5,106.52 698.5,126.24 698.5,142.87 " fill="none" id="BaseModel-backto-CreateTempAndHumidRequest" style="stroke:#454645;stroke-width:1.0;"/><polygon fill="none" points="691.5,89.04,698.5,69.04,705.5,89.04,691.5,89.04" style="stroke:#454645;stroke-width:1.0;"/><!--MD5=[7688f95ce61afac5b0f4ec1bf6d74ffc]
link MainController to MainService--><path codeLine="30" d="M504.7,83.33 C501.18,100.17 497.01,120.15 493.37,137.56 " fill="none" id="MainController-to-MainService" style="stroke:#454645;stroke-width:1.0;"/><polygon fill="#454645" points="492.26,142.87,498.0283,134.8871,493.2901,137.9773,490.1999,133.239,492.26,142.87" style="stroke:#454645;stroke-width:1.0;"/><!--MD5=[59efd419fe1dcb1c0d83c5fdfd6be373]
link MainController to CreateTempAndHumidRequest--><path codeLine="31" d="M564.31,83.33 C588.7,100.9 617.82,121.88 642.69,139.8 " fill="none" id="MainController-to-CreateTempAndHumidRequest" style="stroke:#454645;stroke-width:1.0;"/><polygon fill="#454645" points="646.97,142.87,641.9939,134.3707,642.9091,139.953,637.3267,140.8681,646.97,142.87" style="stroke:#454645;stroke-width:1.0;"/><!--MD5=[0bf6499c3ebe48535b75ae95ffb0127f]
reverse link MainService to MainServiceImpl--><path codeLine="44" d="M446.35,235.86 C435.71,250.89 424.69,266.43 416.02,278.68 " fill="none" id="MainService-backto-MainServiceImpl" style="stroke:#454645;stroke-width:1.0;"/><polygon fill="none" points="440.8,231.59,458.07,219.31,452.22,239.68,440.8,231.59" style="stroke:#454645;stroke-width:1.0;"/><!--MD5=[cdc971ce36314a99d8579de10e11cbce]
reverse link MainService to FakeMainServiceImpl--><path codeLine="45" d="M523.1,235.86 C533.87,250.89 545.01,266.43 553.79,278.68 " fill="none" id="MainService-backto-FakeMainServiceImpl" style="stroke:#454645;stroke-width:1.0;"/><polygon fill="none" points="517.2,239.64,511.24,219.31,528.58,231.49,517.2,239.64" style="stroke:#454645;stroke-width:1.0;"/><!--MD5=[9ffc6f9a59a8f4375748eaf915841837]
link MainServiceImpl to DatabaseFacade--><path codeLine="46" d="M399.5,327.14 C399.5,342.58 399.5,363.33 399.5,381.67 " fill="none" id="MainServiceImpl-to-DatabaseFacade" style="stroke:#454645;stroke-width:1.0;"/><polygon fill="#454645" points="399.5,386.77,403.5,377.77,399.5,381.77,395.5,377.77,399.5,386.77" style="stroke:#454645;stroke-width:1.0;"/><!--MD5=[5d5846708666e3d6ac8617069762922b]
link DatabaseFacade to DatabaseConnection--><path codeLine="47" d="M399.5,463.33 C399.5,480.17 399.5,500.15 399.5,517.56 " fill="none" id="DatabaseFacade-to-DatabaseConnection" style="stroke:#454645;stroke-width:1.0;"/><polygon fill="#454645" points="399.5,522.87,403.5,513.87,399.5,517.87,395.5,513.87,399.5,522.87" style="stroke:#454645;stroke-width:1.0;"/><!--MD5=[c81edea4bda07065aeb1c1f2629201c3]
reverse link DbPoolFactory to DatabaseConnectionAdapter--><path codeLine="54" d="M268.89,710.5 C279.52,710.5 290.15,710.5 300.77,710.5 " fill="none" id="DbPoolFactory-backto-DatabaseConnectionAdapter" style="stroke:#454645;stroke-width:1.0;"/><polygon fill="#454645" points="263.68,710.5,272.68,714.5,268.68,710.5,272.68,706.5,263.68,710.5" style="stroke:#454645;stroke-width:1.0;"/><!--MD5=[99dadfe7bf90515b43be68978a668084]
link DbPoolFactory to ThreadedConnectionPool--><path codeLine="56" d="M165.64,748.69 C149.24,770.58 128.86,797.8 113.94,817.71 " fill="none" id="DbPoolFactory-to-ThreadedConnectionPool" style="stroke:#454645;stroke-width:1.0;"/><polygon fill="#454645" points="110.85,821.84,119.4418,817.0253,113.8432,817.8349,113.0336,812.2363,110.85,821.84" style="stroke:#454645;stroke-width:1.0;"/><!--MD5=[e5decc654b3face1de45078eba84dc92]
link DbPoolFactory to SimpleConnectionPool--><path codeLine="57" d="M221.63,748.69 C238.2,770.58 258.79,797.8 273.85,817.71 " fill="none" id="DbPoolFactory-to-SimpleConnectionPool" style="stroke:#454645;stroke-width:1.0;"/><polygon fill="#454645" points="276.98,821.84,274.7416,812.2489,273.964,817.852,268.3609,817.0745,276.98,821.84" style="stroke:#454645;stroke-width:1.0;"/><!--MD5=[0665379546c57b44659e04ed9e98c314]
@startuml
!theme vibrant

interface DatabaseConnection {
        + get_instance()
        + execute_query(sql)
}
note right: Singleton Design Pattern

class DatabaseConnectionAdapter {
    + get_instance()
    + execute_query(sql)
    - db_pool: ConnectionPool
    - instance: DatabaseConnection
}
note right: Adapter Design Pattern
DatabaseConnectionAdapter -up-|> DatabaseConnection

interface BaseModel

class CreateTempAndHumidRequest {
    + temp: int
    + humid: int
}
CreateTempAndHumidRequest -up-|> BaseModel

class MainController {
    + create_temp_and_humid()
    + get_humid_and_temp()
}
MainController - -> MainService
MainController - -> CreateTempAndHumidRequest

abstract class MainService {
    + create_temp_and_humid()
    + get_humid_and_temp()
}

class DatabaseFacade {
    + create_temp_and_humid()
    + get_humid_and_temp()
}
note right: Facade Design Pattern

MainServiceImpl -up-|> MainService 
FakeMainServiceImpl -up-|> MainService
MainServiceImpl - -> DatabaseFacade
DatabaseFacade - -> DatabaseConnection

class DbPoolFactory {
    + create_threaded_pool()
    + create_simple_pool()
}
note top: Factory Method Design Pattern
DatabaseConnectionAdapter -LEFT-> DbPoolFactory

DbPoolFactory - -> ThreadedConnectionPool
DbPoolFactory - -> SimpleConnectionPool

@enduml

@startuml
skinparam BackgroundColor FFFFFF
skinparam shadowing false
skinparam RoundCorner 7
skinparam ArrowColor 454645
skinparam FontColor 454645
skinparam SequenceLifeLineBorderColor 696969
skinparam SequenceGroupHeaderFontColor 454645
skinparam SequenceGroupFontColor 696969
skinparam SequenceGroupBorderColor 696969
skinparam SequenceGroupBorderThickness 1

skinparam sequenceDivider {
    BorderColor 454645
    BorderThickness 1
    FontColor 454645
}

skinparam participant {
    BackgroundColor FF6347
    BorderColor 454645
    FontColor FFFFFF
    BorderThickness 1.5
}

skinparam database {
    BackgroundColor 00FFFF
    BorderColor 454645
    FontColor 454645
}

skinparam entity {
    BackgroundColor FFE552
    BorderColor 454645
    FontColor 454645
}

skinparam note {
    BackgroundColor 7FFFD4
    BorderColor 454645
    FontColor 454645
    BorderThickness 1.5
}

skinparam actor {
    BackgroundColor 454645
    BorderColor 454645
    FontColor 454645
}

skinparam boundary {
    BackgroundColor FFE552
    BorderColor 454645
    FontColor 454645
}

skinparam control {
    BackgroundColor FFE552
    BorderColor 454645
    FontColor 454645
}

skinparam collections {
    BackgroundColor FF5F42
    BorderColor 454645
    FontColor 454645
}

skinparam queue {
    BackgroundColor FF6347
    BorderColor 454645
    FontColor FFF
    BorderThickness 1.5
}

interface DatabaseConnection {
        + get_instance()
        + execute_query(sql)
}
note right: Singleton Design Pattern

class DatabaseConnectionAdapter {
    + get_instance()
    + execute_query(sql)
    - db_pool: ConnectionPool
    - instance: DatabaseConnection
}
note right: Adapter Design Pattern
DatabaseConnectionAdapter -up-|> DatabaseConnection

interface BaseModel

class CreateTempAndHumidRequest {
    + temp: int
    + humid: int
}
CreateTempAndHumidRequest -up-|> BaseModel

class MainController {
    + create_temp_and_humid()
    + get_humid_and_temp()
}
MainController - -> MainService
MainController - -> CreateTempAndHumidRequest

abstract class MainService {
    + create_temp_and_humid()
    + get_humid_and_temp()
}

class DatabaseFacade {
    + create_temp_and_humid()
    + get_humid_and_temp()
}
note right: Facade Design Pattern

MainServiceImpl -up-|> MainService 
FakeMainServiceImpl -up-|> MainService
MainServiceImpl - -> DatabaseFacade
DatabaseFacade - -> DatabaseConnection

class DbPoolFactory {
    + create_threaded_pool()
    + create_simple_pool()
}
note top: Factory Method Design Pattern
DatabaseConnectionAdapter -LEFT-> DbPoolFactory

DbPoolFactory - -> ThreadedConnectionPool
DbPoolFactory - -> SimpleConnectionPool

@enduml

PlantUML version 1.2022.0(Tue Jan 11 23:16:42 ICT 2022)
(GPL source distribution)
Java Runtime: OpenJDK Runtime Environment
JVM: OpenJDK 64-Bit Server VM
Default Encoding: Cp1252
Language: en
Country: US
--></g></svg>